# xmcd
# Track frame offsets:
# 150
# 18134
# 31637
# 60075
# 78975
# 90147
# 106929
# 129512
# 151973
# 170271
# 193809
# 207893
# 226362
# 242860
#
# Disc length: 3464 seconds
# Revision: 0
# Processed by: cddbd v1.5.2PL0 Copyright (c) Steve Scherf et al.
# Submitted via: VisiTrax 2.10.0.248 - For more info visit www.synapsa.com
#
DISCID=970d860e
DTITLE=Hinkle, James - Blues Now * Jazz Later
DYEAR=2007
DGENRE=Blues
TTITLE0=Track You Down
TTITLE1=Love from a Fool
TTITLE2=I Hear Stories
TTITLE3=East Dallas Dagger
TTITLE4=Minor Mule
TTITLE5=Rolling Up the Sidewalks
TTITLE6=Ain't Gonna Make That Call
TTITLE7=Things Change
TTITLE8=Funky Town
TTITLE9=Brother Love
TTITLE10=Bopped in the Mouth
TTITLE11=Say It to Me One More Time
TTITLE12=Ain't Looking Back No More
TTITLE13=That Was Then
EXTD=
EXTT0=
EXTT1=
EXTT2=
EXTT3=
EXTT4=
EXTT5=
EXTT6=
EXTT7=
EXTT8=
EXTT9=
EXTT10=
EXTT11=
EXTT12=
EXTT13=
PLAYORDER=
